<svg width="20" height="20" viewBox="0 0 20 20" fill="none" xmlns="http://www.w3.org/2000/svg">
<path d="M10 3.46667C12.1333 3.46667 12.4 3.46667 13.2667 3.53333C15.4667 3.6 16.4667 4.66667 16.5333 6.8C16.6 7.66667 16.6 7.86667 16.6 10C16.6 12.1333 16.6 12.4 16.5333 13.2C16.4667 15.3333 15.4 16.4 13.2667 16.4667C12.4 16.5333 12.2 16.5333 10 16.5333C7.86667 16.5333 7.6 16.5333 6.8 16.4667C4.6 16.4 3.6 15.3333 3.53333 13.2C3.46667 12.3333 3.46667 12.1333 3.46667 10C3.46667 7.86667 3.46667 7.6 3.53333 6.8C3.6 4.66667 4.66667 3.6 6.8 3.53333C7.6 3.46667 7.86667 3.46667 10 3.46667ZM10 2C7.8 2 7.53333 2 6.73333 2.06667C3.8 2.2 2.2 3.8 2.06667 6.73333C2 7.53333 2 7.8 2 10C2 12.2 2 12.4667 2.06667 13.2667C2.2 16.2 3.8 17.8 6.73333 17.9333C7.53333 18 7.8 18 10 18C12.2 18 12.4667 18 13.2667 17.9333C16.2 17.8 17.8 16.2 17.9333 13.2667C18 12.4667 18 12.2 18 10C18 7.8 18 7.53333 17.9333 6.73333C17.8 3.8 16.2 2.2 13.2667 2.06667C12.4667 2 12.2 2 10 2ZM10 5.86667C7.73333 5.86667 5.86667 7.73333 5.86667 10C5.86667 12.2667 7.73333 14.1333 10 14.1333C12.2667 14.1333 14.1333 12.2667 14.1333 10C14.1333 7.73333 12.2667 5.86667 10 5.86667ZM10 12.6667C8.53333 12.6667 7.33333 11.4667 7.33333 10C7.33333 8.53333 8.53333 7.33333 10 7.33333C11.4667 7.33333 12.6667 8.53333 12.6667 10C12.6667 11.4667 11.4667 12.6667 10 12.6667ZM14.2667 4.8C13.7333 4.8 13.3333 5.2 13.3333 5.73333C13.3333 6.26667 13.7333 6.66667 14.2667 6.66667C14.8 6.66667 15.2 6.26667 15.2 5.73333C15.2 5.2 14.8 4.8 14.2667 4.8Z" fill="#46A358" fill-opacity="0.6"/>
</svg>
