<svg width="20" height="20" viewBox="0 0 20 20" fill="none" xmlns="http://www.w3.org/2000/svg">
<path d="M7.03186 16.5019C13.0699 16.5019 16.3718 11.4995 16.3718 7.16186C16.3718 7.01974 16.3689 6.87834 16.3624 6.73749C17.0033 6.27417 17.5605 5.69585 18 5.03782C17.4118 5.29914 16.7789 5.47511 16.1149 5.55445C16.7926 5.1481 17.313 4.50499 17.5585 3.7385C16.9241 4.11465 16.2217 4.38798 15.4742 4.53538C14.8749 3.89737 14.0218 3.49829 13.0779 3.49829C11.2648 3.49829 9.79464 4.96849 9.79464 6.78062C9.79464 7.0383 9.82357 7.2887 9.87962 7.52909C7.1516 7.39206 4.73239 6.08565 3.11352 4.09954C2.83127 4.58451 2.66877 5.14828 2.66877 5.74935C2.66877 6.88817 3.24837 7.89359 4.12968 8.48192C3.59121 8.46536 3.08531 8.31723 2.64293 8.0712C2.6422 8.08485 2.6422 8.09868 2.6422 8.11306C2.6422 9.70299 3.77392 11.0303 5.27578 11.3311C5.00008 11.4063 4.71001 11.4467 4.41047 11.4467C4.19901 11.4467 3.99338 11.4256 3.79339 11.3876C4.21121 12.6916 5.42318 13.6408 6.86007 13.6676C5.73636 14.5481 4.32094 15.0728 2.78305 15.0728C2.51827 15.0728 2.25695 15.0577 2 15.0273C3.45273 15.9583 5.17769 16.5019 7.03186 16.5019Z" fill="#46A358" fill-opacity="0.6"/>
</svg>
